<svg width="28" height="28" viewBox="0 0 28 28" fill="none" xmlns="http://www.w3.org/2000/svg">
<path d="M20.3585 26.5416C19.0402 26.5416 17.6518 26.2266 16.2168 25.62C14.8168 25.025 13.4052 24.2083 12.0285 23.2166C10.6635 22.2133 9.34516 21.0933 8.09683 19.8683C6.86016 18.62 5.74016 17.3016 4.7485 15.9483C3.74516 14.5483 2.94016 13.1483 2.3685 11.795C1.76183 10.3483 1.4585 8.94831 1.4585 7.62998C1.4585 6.71998 1.62183 5.85665 1.93683 5.05165C2.2635 4.22331 2.7885 3.45331 3.50016 2.78831C4.3985 1.90165 5.42516 1.45831 6.52183 1.45831C6.97683 1.45831 7.4435 1.56331 7.84016 1.74998C8.29516 1.95998 8.68016 2.27498 8.96016 2.69498L11.6668 6.50998C11.9118 6.84831 12.0985 7.17498 12.2268 7.50165C12.3785 7.85165 12.4602 8.20165 12.4602 8.53998C12.4602 8.98331 12.3318 9.41498 12.0868 9.82331C11.9118 10.1383 11.6435 10.4766 11.3052 10.815L10.5118 11.6433C10.5235 11.6783 10.5352 11.7016 10.5468 11.725C10.6868 11.97 10.9668 12.39 11.5035 13.02C12.0752 13.6733 12.6118 14.2683 13.1485 14.8166C13.8368 15.4933 14.4085 16.03 14.9452 16.4733C15.6102 17.0333 16.0418 17.3133 16.2985 17.4416L16.2752 17.5L17.1268 16.66C17.4885 16.2983 17.8385 16.03 18.1768 15.855C18.8185 15.4583 19.6352 15.3883 20.4518 15.7266C20.7552 15.855 21.0818 16.03 21.4318 16.275L25.3052 19.0283C25.7368 19.32 26.0518 19.6933 26.2385 20.1366C26.4135 20.58 26.4952 20.9883 26.4952 21.3966C26.4952 21.9566 26.3668 22.5166 26.1218 23.0416C25.8768 23.5666 25.5735 24.0216 25.1885 24.4416C24.5235 25.1766 23.8002 25.7016 22.9602 26.04C22.1552 26.3666 21.2802 26.5416 20.3585 26.5416ZM6.52183 3.20831C5.88016 3.20831 5.28516 3.48831 4.7135 4.04831C4.17683 4.54998 3.8035 5.09831 3.57016 5.69331C3.32516 6.29998 3.2085 6.94165 3.2085 7.62998C3.2085 8.71498 3.46516 9.89331 3.9785 11.1066C4.5035 12.3433 5.2385 13.6266 6.17183 14.91C7.10516 16.1933 8.16683 17.4416 9.3335 18.62C10.5002 19.775 11.7602 20.8483 13.0552 21.7933C14.3152 22.715 15.6102 23.4616 16.8935 23.9983C18.8885 24.85 20.7552 25.0483 22.2952 24.4066C22.8902 24.1616 23.4152 23.7883 23.8935 23.2516C24.1618 22.96 24.3718 22.645 24.5468 22.2716C24.6868 21.98 24.7568 21.6766 24.7568 21.3733C24.7568 21.1866 24.7218 21 24.6285 20.79C24.5935 20.72 24.5235 20.5916 24.3018 20.44L20.4285 17.6866C20.1952 17.5233 19.9852 17.4066 19.7868 17.325C19.5302 17.22 19.4252 17.115 19.0285 17.36C18.7952 17.4766 18.5852 17.6516 18.3518 17.885L17.4652 18.76C17.0102 19.2033 16.3102 19.3083 15.7735 19.11L15.4585 18.97C14.9802 18.7133 14.4202 18.3166 13.8018 17.7916C13.2418 17.3133 12.6352 16.7533 11.9002 16.03C11.3285 15.4466 10.7568 14.8283 10.1618 14.14C9.6135 13.4983 9.21683 12.95 8.97183 12.495L8.83183 12.145C8.76183 11.8766 8.7385 11.725 8.7385 11.5616C8.7385 11.1416 8.89016 10.7683 9.18183 10.4766L10.0568 9.56665C10.2902 9.33331 10.4652 9.11165 10.5818 8.91331C10.6752 8.76165 10.7102 8.63331 10.7102 8.51665C10.7102 8.42331 10.6752 8.28331 10.6168 8.14331C10.5352 7.95665 10.4068 7.74665 10.2435 7.52498L7.53683 3.69831C7.42016 3.53498 7.28016 3.41831 7.10516 3.33665C6.9185 3.25498 6.72016 3.20831 6.52183 3.20831ZM16.2752 17.5116L16.0885 18.305L16.4035 17.4883C16.3452 17.4766 16.2985 17.4883 16.2752 17.5116Z" fill="#A40A63" fill-opacity="0.5"/>
</svg>
