<svg width="28" height="28" viewBox="0 0 28 28" fill="none" xmlns="http://www.w3.org/2000/svg">
<path d="M14.186 13.5566C14.151 13.5566 14.1277 13.5566 14.0927 13.5566C14.0343 13.545 13.9527 13.545 13.8827 13.5566C10.4993 13.4516 7.94434 10.7916 7.94434 7.51331C7.94434 4.17665 10.6627 1.45831 13.9993 1.45831C17.336 1.45831 20.0543 4.17665 20.0543 7.51331C20.0427 10.7916 17.476 13.4516 14.221 13.5566C14.2093 13.5566 14.1977 13.5566 14.186 13.5566ZM13.9993 3.20831C11.631 3.20831 9.69434 5.14498 9.69434 7.51331C9.69434 9.84665 11.5143 11.725 13.836 11.8066C13.8943 11.795 14.0577 11.795 14.2093 11.8066C16.496 11.7016 18.2927 9.82331 18.3043 7.51331C18.3043 5.14498 16.3677 3.20831 13.9993 3.20831Z" fill="#A40A63" fill-opacity="0.5"/>
<path d="M14.1979 26.3084C11.9112 26.3084 9.61288 25.725 7.87454 24.5584C6.25288 23.485 5.36621 22.015 5.36621 20.4167C5.36621 18.8184 6.25288 17.3367 7.87454 16.2517C11.3745 13.93 17.0445 13.93 20.5212 16.2517C22.1312 17.325 23.0295 18.795 23.0295 20.3934C23.0295 21.9917 22.1429 23.4734 20.5212 24.5584C18.7712 25.725 16.4845 26.3084 14.1979 26.3084ZM8.84288 17.7217C7.72288 18.4684 7.11621 19.425 7.11621 20.4284C7.11621 21.42 7.73454 22.3767 8.84288 23.1117C11.7479 25.06 16.6479 25.06 19.5529 23.1117C20.6729 22.365 21.2795 21.4084 21.2795 20.405C21.2795 19.4134 20.6612 18.4567 19.5529 17.7217C16.6479 15.785 11.7479 15.785 8.84288 17.7217Z" fill="#A40A63" fill-opacity="0.5"/>
</svg>
