<svg width="28" height="28" viewBox="0 0 28 28" fill="none" xmlns="http://www.w3.org/2000/svg">
<path d="M21 12.5416C20.5217 12.5416 20.125 12.145 20.125 11.6666V9.33331C20.125 5.65831 19.0867 3.20831 14 3.20831C8.91333 3.20831 7.875 5.65831 7.875 9.33331V11.6666C7.875 12.145 7.47833 12.5416 7 12.5416C6.52167 12.5416 6.125 12.145 6.125 11.6666V9.33331C6.125 5.94998 6.94167 1.45831 14 1.45831C21.0583 1.45831 21.875 5.94998 21.875 9.33331V11.6666C21.875 12.145 21.4783 12.5416 21 12.5416Z" fill="#A40A63" fill-opacity="0.5"/>
<path d="M19.8335 26.5417H8.16683C3.02183 26.5417 1.4585 24.9784 1.4585 19.8334V17.5C1.4585 12.355 3.02183 10.7917 8.16683 10.7917H19.8335C24.9785 10.7917 26.5418 12.355 26.5418 17.5V19.8334C26.5418 24.9784 24.9785 26.5417 19.8335 26.5417ZM8.16683 12.5417C3.99016 12.5417 3.2085 13.335 3.2085 17.5V19.8334C3.2085 23.9984 3.99016 24.7917 8.16683 24.7917H19.8335C24.0102 24.7917 24.7918 23.9984 24.7918 19.8334V17.5C24.7918 13.335 24.0102 12.5417 19.8335 12.5417H8.16683Z" fill="#A40A63" fill-opacity="0.5"/>
<path d="M9.33317 19.8333C9.1815 19.8333 9.02983 19.7983 8.88983 19.74C8.73816 19.6817 8.62151 19.6 8.50485 19.495C8.29485 19.2733 8.1665 18.9817 8.1665 18.6667C8.1665 18.515 8.20149 18.3633 8.25982 18.2233C8.31815 18.0717 8.39985 17.955 8.50485 17.8383C8.62151 17.7333 8.73816 17.6516 8.88983 17.5933C9.30983 17.4066 9.83483 17.5117 10.1615 17.8383C10.2665 17.955 10.3482 18.0833 10.4065 18.2233C10.4649 18.3633 10.4998 18.515 10.4998 18.6667C10.4998 18.97 10.3715 19.2733 10.1615 19.495C9.93983 19.705 9.6365 19.8333 9.33317 19.8333Z" fill="#A40A63" fill-opacity="0.5"/>
<path d="M14.0002 19.8334C13.6968 19.8334 13.3935 19.7051 13.1718 19.4951C12.9618 19.2734 12.8335 18.9817 12.8335 18.6667C12.8335 18.5151 12.8568 18.3634 12.9268 18.2234C12.9851 18.0834 13.0668 17.9551 13.1718 17.8384C13.4402 17.5701 13.8485 17.4417 14.2218 17.5234C14.3035 17.535 14.3735 17.5584 14.4435 17.5934C14.5135 17.6167 14.5835 17.6517 14.6535 17.6984C14.7118 17.7334 14.7702 17.7917 14.8285 17.8384C14.9335 17.9551 15.0152 18.0834 15.0735 18.2234C15.1318 18.3634 15.1668 18.5151 15.1668 18.6667C15.1668 18.9817 15.0385 19.2734 14.8285 19.4951C14.7702 19.5417 14.7118 19.5884 14.6535 19.635C14.5835 19.6817 14.5135 19.7167 14.4435 19.7401C14.3735 19.7751 14.3035 19.7984 14.2218 19.8101C14.1518 19.8217 14.0702 19.8334 14.0002 19.8334Z" fill="#A40A63" fill-opacity="0.5"/>
<path d="M18.6667 19.8334C18.3517 19.8334 18.06 19.7051 17.8383 19.4951C17.7333 19.3784 17.6517 19.2501 17.5933 19.1101C17.535 18.9701 17.5 18.8184 17.5 18.6667C17.5 18.3634 17.6283 18.0601 17.8383 17.8384C17.8967 17.7917 17.955 17.7451 18.0133 17.6984C18.0833 17.6517 18.1533 17.6167 18.2233 17.5934C18.2933 17.5584 18.3633 17.535 18.4333 17.5234C18.8183 17.4417 19.215 17.5701 19.495 17.8384C19.705 18.0601 19.8333 18.3517 19.8333 18.6667C19.8333 18.8184 19.7983 18.9701 19.74 19.1101C19.6817 19.2617 19.6 19.3784 19.495 19.4951C19.2733 19.7051 18.97 19.8334 18.6667 19.8334Z" fill="#A40A63" fill-opacity="0.5"/>
</svg>
